#!OML:ASF X:\für Bonn\!DataBase\2005_08_11_Bastian_Final\c3d\Bastian.ASF
:FULLY-SPECIFIED
:DEGREES
81
root -22.9728 16.4948 20.9512 356.216 -246.788 11.4258
lowerback 17.6716 -0.367393 0.0999463
upperback 7.94348 0.153074 -2.08649
thorax -1.40207 0.40829 -2.28995
lowerneck 0.889065 1.47919 -0.346776
upperneck 8.33087 2.16153 -0.190516
head 2.46675 1.12627 0.041927
rclavicle -3.18055e-015 -1.74931e-014
rhumerus 23.2144 -11.5985 -26.9009
rradius 69.4203
rwrist 4.64017
rhand -30.6467 1.94085
rfingers 7.12502
rthumb -3.94196 -28.0024
lclavicle -3.18055e-015 -1.74931e-014
lhumerus 18.3062 8.36387 39.9968
lradius 65.2414
lwrist 40.9269
lhand -26.193 -23.9272
lfingers 7.12502
lthumb 0.359357 6.05227
rfemur 30.286 2.94932 28.0431
rtibia 17.588
rfoot -17.8549 -6.53496
rtoes 24.5409
lfemur -40.0692 17.0116 -16.0941
ltibia 42.5579
lfoot -18.2612 1.79281
ltoes -26.1342
82
root -22.8483 16.4501 20.869 356.395 -246.935 11.6882
lowerback 18.0116 -0.302568 0.0354863
upperback 8.00065 0.239463 -2.22824
thorax -1.51223 0.460024 -2.4235
lowerneck 1.00849 1.54445 -0.262895
upperneck 8.45153 2.26441 -0.317176
head 2.48802 1.17936 -0.0107348
rclavicle -2.64384e-014 -4.45278e-014
rhumerus 25.1505 -12.3655 -26.3662
rradius 68.5256
rwrist 4.8956
rhand -30.4873 1.75413
rfingers 7.12502
rthumb -3.78808 -28.192
lclavicle -2.64384e-014 -4.45278e-014
lhumerus 18.9033 8.78789 38.9009
lradius 64.5833
lwrist 40.7971
lhand -26.5321 -24.2627
lfingers 7.12502
lthumb 0.031848 5.71706
rfemur 31.2622 2.83963 27.936
rtibia 16.8444
rfoot -17.6977 -6.30246
rtoes 24.5546
lfemur -40.4228 16.9177 -15.9995
ltibia 42.2194
lfoot -18.4306 1.80793
ltoes -26.0066
83
root -22.7226 16.4067 20.786 356.527 -247.118 11.8832
lowerback 18.3449 -0.22472 -0.0736347
upperback 8.0674 0.336255 -2.38129
thorax -1.6074 0.516997 -2.54665
lowerneck 1.10273 1.62089 -0.243797
upperneck 8.58707 2.38114 -0.404873
head 2.51779 1.23838 -0.0395505
rclavicle -1.70955e-014 2.06736e-014
rhumerus 26.9945 -13.0745 -25.8065
rradius 67.6906
rwrist 5.2006
rhand -30.39 1.45
rfingers 7.12502
rthumb -3.69409 -28.4977
lclavicle -1.70955e-014 2.06736e-014
lhumerus 19.4589 9.23076 37.8568
lradius 63.9616
lwrist 40.7779
lhand -26.7956 -24.6576
lfingers 7.12502
lthumb -0.222695 5.32206
rfemur 32.0515 2.77727 27.794
rtibia 16.4753
rfoot -17.6994 -6.07024
rtoes 24.6266
lfemur -40.8015 16.802 -15.8979
ltibia 42.0723
lfoot -18.5058 1.78268
ltoes -25.3167
84
root -22.5969 16.3623 20.7026 356.733 -247.306 12.1498
lowerback 18.6976 -0.155928 -0.164847
upperback 8.12561 0.422248 -2.53331
thorax -1.72126 0.568687 -2.67846
lowerneck 1.25931 1.70822 -0.275448
upperneck 8.66574 2.51063 -0.474272
head 2.5166 1.30278 -0.0548483
rclavicle -3.26007e-014 0
rhumerus 28.7577 -13.6771 -25.1922
rradius 66.904
rwrist 5.40369
rhand -30.382 1.08696
rfingers 7.12502
rthumb -3.68637 -28.8609
lclavicle -3.26007e-014 0
lhumerus 19.8792 9.71294 36.8947
lradius 63.4444
lwrist 40.714
lhand -26.9822 -24.9522
lfingers 7.12502
lthumb -0.402921 5.02713
rfemur 32.7924 2.68082 27.6445
rtibia 16.1733
rfoot -17.7167 -5.79687
rtoes 24.6379
lfemur -41.1752 16.6423 -15.739
ltibia 42.0171
lfoot -18.5112 1.67607
ltoes -24.252
85
root -22.4699 16.2828 20.6174 357.002 -247.525 12.4542
lowerback 19.0692 -0.0659545 -0.262983
upperback 8.16542 0.531809 -2.68482
thorax -1.86255 0.631194 -2.81244
lowerneck 1.42893 1.79725 -0.347743
upperneck 8.73991 2.64027 -0.506686
head 2.51049 1.36716 -0.0518654
rclavicle -6.44062e-014 2.54444e-014
rhumerus 30.3865 -14.1806 -24.5293
rradius 66.1882
rwrist 5.43447
rhand -30.4812 0.69871
rfingers 7.12502
rthumb -3.78214 -29.2475
lclavicle -6.44062e-014 2.54444e-014
lhumerus 20.2878 10.2019 36.0286
lradius 62.9435
lwrist 40.8052
lhand -26.9819 -25.2433
lfingers 7.12502
lthumb -0.402649 4.7361
rfemur 33.5099 2.61317 27.4957
rtibia 15.9649
rfoot -17.7933 -5.52879
rtoes 24.7
lfemur -41.7363 16.5244 -15.5939
ltibia 42.1248
lfoot -18.5263 1.52962
ltoes -24.1868
86
root -22.3434 16.2378 20.5329 357.322 -247.771 12.8356
lowerback 19.4837 0.0220883 -0.314634
upperback 8.21414 0.647276 -2.85828
thorax -2.0142 0.699272 -3.00008
lowerneck 1.60312 1.88997 -0.439182
upperneck 8.78517 2.77066 -0.499843
head 2.49299 1.43208 -0.0336639
rclavicle -2.98177e-014 1.43125e-014
rhumerus 32.0034 -14.6774 -23.9359
rradius 65.4248
rwrist 5.41388
rhand -30.6209 0.449234
rfingers 7.12502
rthumb -3.91703 -29.4945
lclavicle -2.98177e-014 1.43125e-014
lhumerus 20.6429 10.6663 35.1683
lradius 62.4947
lwrist 40.9601
lhand -27.0124 -25.5417
lfingers 7.12502
lthumb -0.432062 4.43761
rfemur 34.1533 2.5546 27.3477
rtibia 15.8093
rfoot -17.8469 -5.18309
rtoes 24.932
lfemur -42.0882 16.4002 -15.3663
ltibia 42.232
lfoot -18.6795 1.28805
ltoes -24.1661
